<?xml version="1.0" encoding="UTF-8"?>
<svg width="512" height="512" viewBox="0 0 512 512" fill="none" xmlns="http://www.w3.org/2000/svg" role="img" aria-label="No image available">
  <defs>
    <linearGradient id="bg" x1="0" y1="0" x2="1" y2="1">
      <stop offset="0%" stop-color="#F5F7FA"/>
      <stop offset="100%" stop-color="#E4E7EB"/>
    </linearGradient>
    <linearGradient id="accent" x1="0" y1="0" x2="0" y2="1">
      <stop offset="0%" stop-color="#9AA5B1"/>
      <stop offset="100%" stop-color="#7B8794"/>
    </linearGradient>
    <filter id="softShadow" x="-20%" y="-20%" width="140%" height="140%">
      <feDropShadow dx="0" dy="8" stdDeviation="16" flood-color="#000000" flood-opacity="0.1"/>
    </filter>
  </defs>

  <!-- Background -->
  <rect width="512" height="512" rx="24" fill="url(#bg)"/>

  <!-- Card area -->
  <g filter="url(#softShadow)">
    <rect x="56" y="76" width="400" height="360" rx="20" fill="#FFFFFF"/>
    <rect x="56.5" y="76.5" width="399" height="359" rx="19.5" stroke="#E5E7EB"/>
  </g>

  <!-- Stylized placeholder graphic (camera/product icon) -->
  <g transform="translate(0,2)">
    <!-- Circle backdrop -->
    <circle cx="256" cy="248" r="84" fill="#EDF2F7" stroke="#D9DEE6"/>
    <!-- Camera body -->
    <path d="M312 260c0 19.9-16.1 36-36 36h-40c-19.9 0-36-16.1-36-36v-26c0-11 9-20 20-20h12.5c3.4 0 6.5-1.9 8.1-4.9l6.3-11.8c2.2-4.1 6.5-6.7 11.2-6.7h16c4.7 0 9 2.6 11.2 6.7l6.3 11.8c1.6 3 4.7 4.9 8.1 4.9H292c11 0 20 9 20 20v26z" fill="url(#accent)"/>
    <!-- Lens -->
    <circle cx="256" cy="247" r="22" fill="#FFFFFF" stroke="#CBD2D9" stroke-width="3"/>
    <circle cx="256" cy="247" r="10" fill="#A0AEC0"/>
    <!-- Small flash dot -->
    <circle cx="292" cy="226" r="5" fill="#E2E8F0"/>
  </g>

  <!-- Decorative shapes -->
  <g opacity="0.5">
    <circle cx="112" cy="120" r="6" fill="#E4E7EB"/>
    <circle cx="400" cy="140" r="4" fill="#E4E7EB"/>
    <circle cx="420" cy="380" r="5" fill="#E4E7EB"/>
    <circle cx="96" cy="380" r="5" fill="#E4E7EB"/>
  </g>

  <!-- Caption -->
  <text x="256" y="388" text-anchor="middle" font-family="ui-sans-serif, system-ui, -apple-system, Segoe UI, Roboto, Helvetica, Arial, 'Apple Color Emoji','Segoe UI Emoji'" font-size="18" fill="#7B8794">
    Фото недоступно
  </text>
</svg>
